<svg xmlns="http://www.w3.org/2000/svg" width="300" height="300" fill="none" viewBox="0 0 300 300">
    <circle cx="150" cy="150" r="150" fill="url(#a)"/>
    <circle cx="150" cy="150" r="118" fill="#B5191D"/>
    <path fill="#fff" d="M132.907 166c0-4.5-2.7-7.2-8.1-7.2h-9V184h3.6v-10.8h3.6v2.7l5.4 8.1h4.5l-7.2-10.836c4.788-.288 7.2-2.916 7.2-7.164zm-13.5-3.6h5.4c2.7 0 4.5.9 4.5 3.6s-1.8 3.6-4.5 3.6h-5.4v-7.2zm37.793 0v-3.6h-14.4V184h14.4v-3.6h-10.8v-7.2h7.2v-3.6h-7.2v-7.2h10.8zm20.707-3.6c-7.2 0-12.6 4.5-12.6 12.6s5.4 12.6 12.6 12.6c3.6 0 6.3-1.8 6.3-1.8v-3.6s-2.7 1.8-6.3 1.8c-4.5 0-9-2.7-9-9s4.5-9 9-9c3.6 0 6.3 1.8 6.3 1.8v-3.6s-2.7-1.8-6.3-1.8z"/>
    <path fill="#fff" d="M115.807 158.8v-1h-1v1h1zm0 25.2h-1v1h1v-1zm3.6 0v1h1v-1h-1zm0-10.8v-1h-1v1h1zm3.6 0h1v-1h-1v1zm0 2.7h-1v.303l.168.252.832-.555zm5.4 8.1l-.832.555.297.445h.535v-1zm4.5 0v1h1.865l-1.032-1.553-.833.553zm-7.2-10.836l-.06-.998-1.735.104.962 1.447.833-.553zm-6.3-10.764v-1h-1v1h1zm0 7.2h-1v1h1v-1zm14.5-3.6c0-2.453-.742-4.551-2.349-6.025-1.595-1.461-3.896-2.175-6.751-2.175v2c2.545 0 4.294.636 5.399 1.65 1.093 1.001 1.701 2.503 1.701 4.55h2zm-9.1-8.2h-9v2h9v-2zm-10 1V184h2v-25.2h-2zm1 26.2h3.6v-2h-3.6v2zm4.6-1v-10.8h-2V184h2zm-1-9.8h3.6v-2h-3.6v2zm2.6-1v2.7h2v-2.7h-2zm.168 3.255l5.4 8.1 1.664-1.11-5.4-8.1-1.664 1.11zm6.232 8.545h4.5v-2h-4.5v2zm5.333-1.553l-7.2-10.836-1.666 1.106 7.2 10.836 1.666-1.106zm-7.973-9.285c2.56-.154 4.625-.943 6.049-2.394 1.43-1.457 2.091-3.454 2.091-5.768h-2c0 1.934-.545 3.375-1.518 4.366-.979.997-2.514 1.666-4.742 1.8l.12 1.996zm-6.36-10.762h5.4v-2h-5.4v2zm5.4 0c1.273 0 2.146.219 2.681.601.468.335.819.896.819 1.999h2c0-1.597-.549-2.836-1.656-3.626-1.04-.743-2.417-.974-3.844-.974v2zm3.5 2.6c0 1.103-.351 1.664-.819 1.999-.535.382-1.408.601-2.681.601v2c1.427 0 2.804-.231 3.844-.974 1.107-.79 1.656-2.029 1.656-3.626h-2zm-3.5 2.6h-5.4v2h5.4v-2zm-4.4 1v-7.2h-2v7.2h2zm36.793-7.2v1h1v-1h-1zm0-3.6h1v-1h-1v1zm-14.4 0v-1h-1v1h1zm0 25.2h-1v1h1v-1zm14.4 0v1h1v-1h-1zm0-3.6h1v-1h-1v1zm-10.8 0h-1v1h1v-1zm0-7.2v-1h-1v1h1zm7.2 0v1h1v-1h-1zm0-3.6h1v-1h-1v1zm-7.2 0h-1v1h1v-1zm0-7.2v-1h-1v1h1zm11.8 0v-3.6h-2v3.6h2zm-1-4.6h-14.4v2h14.4v-2zm-15.4 1V184h2v-25.2h-2zm1 26.2h14.4v-2h-14.4v2zm15.4-1v-3.6h-2v3.6h2zm-1-4.6h-10.8v2h10.8v-2zm-9.8 1v-7.2h-2v7.2h2zm-1-6.2h7.2v-2h-7.2v2zm8.2-1v-3.6h-2v3.6h2zm-1-4.6h-7.2v2h7.2v-2zm-6.2 1v-7.2h-2v7.2h2zm-1-6.2h10.8v-2h-10.8v2zm37.807 18.8l.555.832.445-.297v-.535h-1zm0-3.6h1v-1.869l-1.555 1.037.555.832zm0-14.4l-.555.832 1.555 1.037V164.2h-1zm0-3.6h1v-.535l-.445-.297-.555.832zm-6.3-2.8c-3.806 0-7.22 1.192-9.689 3.537-2.477 2.354-3.911 5.781-3.911 10.063h2c0-3.818 1.266-6.691 3.289-8.613 2.031-1.929 4.918-2.987 8.311-2.987v-2zm-13.6 13.6c0 4.282 1.434 7.709 3.911 10.062 2.469 2.346 5.883 3.538 9.689 3.538v-2c-3.393 0-6.28-1.058-8.311-2.987-2.023-1.922-3.289-4.795-3.289-8.613h-2zm13.6 13.6c1.963 0 3.667-.49 4.871-.972a13.202 13.202 0 0 0 1.43-.669c.169-.092.303-.171.396-.227l.11-.069.032-.02.01-.007.003-.002.002-.001v-.001l-.554-.832-.554-.832v-.001h.001l-.001.001-.015.009-.074.046a6.733 6.733 0 0 1-.314.18c-.28.153-.694.36-1.214.569-1.046.418-2.492.828-4.129.828v2zm7.3-2.8v-3.6h-2v3.6h2zm-1-3.6l-.554-.832v-.001h.001l-.001.001-.015.009-.074.046a6.733 6.733 0 0 1-.314.18c-.28.153-.694.36-1.214.569-1.046.418-2.492.828-4.129.828v2c1.963 0 3.667-.49 4.871-.972a13.202 13.202 0 0 0 1.43-.669c.169-.092.303-.171.396-.227l.11-.069.032-.02a.2.2 0 0 1 .01-.007l.003-.002.002-.001v-.001l-.554-.832zm-6.3.8c-2.062 0-4.063-.62-5.533-1.893-1.446-1.254-2.467-3.216-2.467-6.107h-2c0 3.409 1.229 5.947 3.158 7.618 1.905 1.652 4.404 2.382 6.842 2.382v-2zm-8-8c0-2.891 1.021-4.853 2.467-6.107 1.47-1.273 3.471-1.893 5.533-1.893v-2c-2.438 0-4.937.73-6.842 2.382-1.929 1.671-3.158 4.209-3.158 7.618h2zm8-8c1.637 0 3.083.41 4.129.828.52.209.934.416 1.214.569.14.076.246.138.314.18l.074.046.015.009.001.001h-.001v-.001l.554-.832.554-.832v-.001l-.002-.001-.003-.002-.01-.007-.032-.02-.11-.069a10.381 10.381 0 0 0-.396-.227 13.202 13.202 0 0 0-1.43-.669c-1.204-.482-2.908-.972-4.871-.972v2zm7.3.8v-3.6h-2v3.6h2zm-1-3.6l.554-.832v-.001l-.002-.001-.003-.002a.2.2 0 0 1-.01-.007l-.032-.02-.11-.069a10.381 10.381 0 0 0-.396-.227 13.202 13.202 0 0 0-1.43-.669c-1.204-.482-2.908-.972-4.871-.972v2c1.637 0 3.083.41 4.129.828.52.209.934.416 1.214.569.14.076.246.138.314.18l.074.046.015.009.001.001h-.001v-.001l.554-.832z"/>
    <rect width="36" height="36" x="132" y="90" stroke="#fff" stroke-width="4" rx="18"/>
    <defs>
        <linearGradient id="a" x1="150" x2="150" y2="300" gradientUnits="userSpaceOnUse">
            <stop stop-color="#402B59"/>
            <stop offset=".255" stop-color="#B5191D"/>
            <stop offset=".74" stop-color="#FCBD0B"/>
            <stop offset="1" stop-color="#FFD7ED"/>
        </linearGradient>
    </defs>
</svg>
