<svg xmlns="http://www.w3.org/2000/svg" width="300" height="300" fill="none" viewBox="0 0 300 300">
    <circle cx="150" cy="150" r="150" fill="url(#a)"/>
    <circle cx="150" cy="150" r="118" fill="#402B59"/>
    <path fill="#fff" d="M115.8 179.8c0-8.1-12.6-6.3-12.6-10.8 0-1.8.9-3.6 4.5-3.6s7.2 1.8 7.2 1.8v-3.6s-2.7-1.8-7.2-1.8-8.1 2.7-8.1 7.2c0 8.1 12.6 6.3 12.6 10.8 0 1.8-.9 3.6-4.5 3.6s-7.2-1.8-7.2-1.8v3.6s2.7 1.8 7.2 1.8 8.1-2.7 8.1-7.2zm8.107-18v3.6h7.2V187h3.6v-21.6h7.2v-3.6h-18zm37.793 0c-7.2 0-11.7 5.4-11.7 12.6 0 7.2 4.5 12.6 11.7 12.6 7.2 0 11.7-5.4 11.7-12.6 0-7.2-4.5-12.6-11.7-12.6zm0 3.6c4.5 0 8.1 3.6 8.1 9s-3.6 9-8.1 9-8.1-3.6-8.1-9 3.6-9 8.1-9zm30.607-3.6h-9V187h3.6v-10.8h5.4c5.4 0 8.1-2.7 8.1-7.2s-2.7-7.2-8.1-7.2zm0 10.8h-5.4v-7.2h5.4c2.7 0 4.5.9 4.5 3.6s-1.8 3.6-4.5 3.6z"/>
    <path fill="#fff" d="M114.9 167.2l-.447.894 1.447.724V167.2h-1zm0-3.6h1v-.535l-.445-.297-.555.832zm-14.4 18l.447-.894-1.447-.724v1.618h1zm0 3.6h-1v.535l.445.297.555-.832zm16.3-5.4c0-2.333-.927-4.006-2.308-5.222-1.334-1.175-3.065-1.902-4.656-2.47-1.673-.597-3.11-1.001-4.22-1.556-1.096-.548-1.416-1.024-1.416-1.552h-2c0 1.722 1.255 2.708 2.522 3.341 1.252.627 2.965 1.123 4.442 1.651 1.559.557 2.978 1.18 4.006 2.086.982.865 1.63 2.005 1.63 3.722h2zM104.2 169c0-.746.186-1.347.607-1.768.421-.421 1.247-.832 2.893-.832v-2c-1.954 0-3.378.489-4.307 1.418-.929.929-1.193 2.128-1.193 3.182h2zm3.5-2.6c1.649 0 3.334.415 4.634.849a19.865 19.865 0 0 1 1.981.78c.049.022.085.04.108.051l.025.012.005.003h0l.447-.895.447-.895h-.001-.001l-.003-.002-.011-.005a.44.44 0 0 0-.037-.018l-.133-.064a22.213 22.213 0 0 0-2.195-.865c-1.4-.466-3.315-.951-5.266-.951v2zm8.2.8v-3.6h-2v3.6h2zm-1-3.6l.554-.832-.001-.001-.001-.001-.004-.003-.011-.007-.034-.022-.116-.07a8.021 8.021 0 0 0-.417-.232c-.358-.187-.876-.43-1.541-.672-1.328-.483-3.244-.96-5.629-.96v2c2.115 0 3.8.423 4.946.84a10.82 10.82 0 0 1 1.299.565c.144.076.251.137.318.177l.072.043.013.009s.001 0 0 0l-.001-.001h-.001v-.001l.554-.832zm-7.2-2.8c-2.443 0-4.71.733-6.383 2.149-1.69 1.43-2.717 3.511-2.717 6.051h2c0-1.96.774-3.479 2.008-4.524 1.252-1.059 3.035-1.676 5.092-1.676v-2zm-9.1 8.2c0 2.333.927 4.006 2.308 5.222 1.334 1.175 3.065 1.902 4.656 2.47 1.673.597 3.11 1.001 4.22 1.556 1.096.548 1.416 1.024 1.416 1.552h2c0-1.722-1.255-2.708-2.522-3.341-1.252-.627-2.965-1.123-4.442-1.651-1.559-.557-2.978-1.18-4.006-2.086-.982-.865-1.63-2.005-1.63-3.722h-2zm12.6 10.8c0 .746-.186 1.347-.607 1.768-.421.421-1.247.832-2.893.832v2c1.954 0 3.378-.489 4.307-1.418.929-.929 1.193-2.128 1.193-3.182h-2zm-3.5 2.6c-1.649 0-3.334-.415-4.634-.849a19.865 19.865 0 0 1-1.981-.78c-.049-.022-.085-.04-.108-.051a.423.423 0 0 0-.025-.012l-.005-.003h-.001.001l-.447.895-.447.895h.002l.003.002.011.005a.44.44 0 0 0 .037.018l.133.064a22.213 22.213 0 0 0 2.195.865c1.4.466 3.315.951 5.266.951v-2zm-8.2-.8v3.6h2v-3.6h-2zm1 3.6l-.554.832v.001l.002.001a.046.046 0 0 0 .004.003l.011.007.034.022.116.07c.098.059.237.138.417.232.358.187.876.43 1.541.672 1.328.483 3.244.96 5.629.96v-2c-2.115 0-3.799-.423-4.946-.84a10.82 10.82 0 0 1-1.299-.565 7.144 7.144 0 0 1-.318-.177l-.072-.043-.013-.009s-.001 0 0 0l.001.001h.001v.001l-.554.832zm7.2 2.8c2.443 0 4.71-.733 6.383-2.149 1.691-1.43 2.717-3.511 2.717-6.051h-2c0 1.96-.774 3.479-2.008 4.524-1.252 1.059-3.035 1.676-5.092 1.676v2zm16.207-26.2v-1h-1v1h1zm0 3.6h-1v1h1v-1zm7.2 0h1v-1h-1v1zm0 21.6h-1v1h1v-1zm3.6 0v1h1v-1h-1zm0-21.6v-1h-1v1h1zm7.2 0v1h1v-1h-1zm0-3.6h1v-1h-1v1zm-19 0v3.6h2v-3.6h-2zm1 4.6h7.2v-2h-7.2v2zm6.2-1V187h2v-21.6h-2zm1 22.6h3.6v-2h-3.6v2zm4.6-1v-21.6h-2V187h2zm-1-20.6h7.2v-2h-7.2v2zm8.2-1v-3.6h-2v3.6h2zm-1-4.6h-18v2h18v-2zm19.793 0c-3.866 0-7.067 1.458-9.293 3.931-2.216 2.462-3.407 5.864-3.407 9.669h2c0-3.395 1.059-6.293 2.893-8.331 1.824-2.027 4.473-3.269 7.807-3.269v-2zM149 174.4c0 3.805 1.191 7.207 3.407 9.669 2.226 2.473 5.427 3.931 9.293 3.931v-2c-3.334 0-5.983-1.242-7.807-3.269-1.834-2.038-2.893-4.936-2.893-8.331h-2zm12.7 13.6c3.866 0 7.067-1.458 9.293-3.931 2.216-2.462 3.407-5.864 3.407-9.669h-2c0 3.395-1.059 6.293-2.893 8.331-1.824 2.027-4.473 3.269-7.807 3.269v2zm12.7-13.6c0-3.805-1.191-7.207-3.407-9.669-2.226-2.473-5.427-3.931-9.293-3.931v2c3.334 0 5.983 1.242 7.807 3.269 1.834 2.038 2.893 4.936 2.893 8.331h2zm-12.7-8c3.879 0 7.1 3.081 7.1 8h2c0-5.881-3.979-10-9.1-10v2zm7.1 8c0 4.919-3.221 8-7.1 8v2c5.121 0 9.1-4.119 9.1-10h-2zm-7.1 8c-3.879 0-7.1-3.081-7.1-8h-2c0 5.881 3.979 10 9.1 10v-2zm-7.1-8c0-4.919 3.221-8 7.1-8v-2c-5.121 0-9.1 4.119-9.1 10h2zm28.707-12.6v-1h-1v1h1zm0 25.2h-1v1h1v-1zm3.6 0v1h1v-1h-1zm0-10.8v-1h-1v1h1zm0-3.6h-1v1h1v-1zm0-7.2v-1h-1v1h1zm5.4-4.6h-9v2h9v-2zm-10 1V187h2v-25.2h-2zm1 26.2h3.6v-2h-3.6v2zm4.6-1v-10.8h-2V187h2zm-1-9.8h5.4v-2h-5.4v2zm5.4 0c2.855 0 5.156-.714 6.751-2.175 1.607-1.474 2.349-3.572 2.349-6.025h-2c0 2.047-.608 3.549-1.701 4.55-1.105 1.014-2.854 1.65-5.399 1.65v2zm9.1-8.2c0-2.453-.742-4.551-2.349-6.025-1.595-1.461-3.896-2.175-6.751-2.175v2c2.545 0 4.294.636 5.399 1.65 1.093 1.001 1.701 2.503 1.701 4.55h2zm-9.1 2.6h-5.4v2h5.4v-2zm-4.4 1v-7.2h-2v7.2h2zm-1-6.2h5.4v-2h-5.4v2zm5.4 0c1.273 0 2.146.219 2.681.601.468.335.819.896.819 1.999h2c0-1.597-.549-2.836-1.656-3.626-1.04-.743-2.417-.974-3.844-.974v2zm3.5 2.6c0 1.103-.351 1.664-.819 1.999-.535.382-1.408.601-2.681.601v2c1.427 0 2.804-.231 3.844-.974 1.107-.79 1.656-2.029 1.656-3.626h-2z"/>
    <path stroke="#fff" stroke-width="4" d="M132 93h36v36h-36z"/>
    <defs>
        <linearGradient id="a" x1="150" x2="150" y2="300" gradientUnits="userSpaceOnUse">
            <stop stop-color="#402B59"/>
            <stop offset=".255" stop-color="#B5191D"/>
            <stop offset=".74" stop-color="#FCBD0B"/>
            <stop offset="1" stop-color="#FFD7ED"/>
        </linearGradient>
    </defs>
</svg>
