<svg xmlns="http://www.w3.org/2000/svg" width="300" height="300" fill="none" viewBox="0 0 300 300">
    <circle cx="150" cy="150" r="150" fill="url(#a)"/>
    <circle cx="150" cy="150" r="118" fill="#FFD7ED"/>
    <path fill="#000" d="M88.8 161.8h-3.6v15.3c0 3.6-1.8 6.3-5.4 6.3-3.6 0-5.4-2.7-5.4-6.3v-15.3h-3.6v15.3c0 5.4 2.7 9.9 9 9.9s9-4.5 9-9.9v-15.3zm19.786 0h-9V187h3.6v-10.8h5.4c5.4 0 8.1-2.7 8.1-7.2s-2.7-7.2-8.1-7.2zm0 10.8h-5.4v-7.2h5.4c2.7 0 4.5.9 4.5 3.6s-1.8 3.6-4.5 3.6zm21.593 10.8v-21.6h-3.6V187h14.4v-3.6h-10.8zm30.607-21.6c-7.2 0-11.7 5.4-11.7 12.6 0 7.2 4.5 12.6 11.7 12.6 7.2 0 11.7-5.4 11.7-12.6 0-7.2-4.5-12.6-11.7-12.6zm0 3.6c4.5 0 8.1 3.6 8.1 9s-3.6 9-8.1 9-8.1-3.6-8.1-9 3.6-9 8.1-9zM199.5 187h3.6l-9-25.2h-5.4l-9 25.2h3.6l2.556-7.2h11.088l2.556 7.2zm-12.348-10.8l4.248-11.88 4.248 11.88h-8.496zm30.355-14.4h-4.5V187h4.5c7.2 0 12.6-5.4 12.6-12.6 0-7.2-5.4-12.6-12.6-12.6zm0 21.6h-.9v-18h.9c4.5 0 9 2.7 9 9s-4.5 9-9 9z"/>
    <path fill="#000" d="M88.8 161.8h1v-1h-1v1zm-3.6 0v-1h-1v1h1zm-10.8 0h1v-1h-1v1zm-3.6 0v-1h-1v1h1zm18-1h-3.6v2h3.6v-2zm-4.6 1v15.3h2v-15.3h-2zm0 15.3c0 1.647-.413 2.978-1.13 3.875-.694.867-1.746 1.425-3.27 1.425v2c2.076 0 3.725-.792 4.83-2.175 1.083-1.353 1.57-3.172 1.57-5.125h-2zm-4.4 5.3c-1.524 0-2.575-.558-3.27-1.425-.717-.897-1.13-2.228-1.13-3.875h-2c0 1.953.487 3.772 1.57 5.125 1.106 1.383 2.754 2.175 4.83 2.175v-2zm-4.4-5.3v-15.3h-2v15.3h2zm-1-16.3h-3.6v2h3.6v-2zm-4.6 1v15.3h2v-15.3h-2zm0 15.3c0 2.851.711 5.575 2.361 7.606C73.837 186.768 76.388 188 79.8 188v-2c-2.888 0-4.837-1.018-6.086-2.556-1.275-1.569-1.914-3.795-1.914-6.344h-2zm10 10.9c3.412 0 5.963-1.232 7.639-3.294 1.65-2.031 2.361-4.755 2.361-7.606h-2c0 2.549-.639 4.775-1.914 6.344C84.637 184.982 82.688 186 79.8 186v2zm10-10.9v-15.3h-2v15.3h2zm9.786-15.3v-1h-1v1h1zm0 25.2h-1v1h1v-1zm3.6 0v1h1v-1h-1zm0-10.8v-1h-1v1h1zm0-3.6h-1v1h1v-1zm0-7.2v-1h-1v1h1zm5.4-4.6h-9v2h9v-2zm-10 1V187h2v-25.2h-2zm1 26.2h3.6v-2h-3.6v2zm4.6-1v-10.8h-2V187h2zm-1-9.8h5.4v-2h-5.4v2zm5.4 0c2.855 0 5.156-.714 6.751-2.175 1.607-1.474 2.349-3.572 2.349-6.025h-2c0 2.047-.608 3.549-1.701 4.55-1.105 1.014-2.854 1.65-5.399 1.65v2zm9.1-8.2c0-2.453-.742-4.551-2.349-6.025-1.595-1.461-3.896-2.175-6.751-2.175v2c2.545 0 4.294.636 5.399 1.65 1.093 1.001 1.701 2.503 1.701 4.55h2zm-9.1 2.6h-5.4v2h5.4v-2zm-4.4 1v-7.2h-2v7.2h2zm-1-6.2h5.4v-2h-5.4v2zm5.4 0c1.273 0 2.146.219 2.681.601.468.335.819.896.819 1.999h2c0-1.597-.549-2.836-1.656-3.626-1.04-.743-2.417-.974-3.844-.974v2zm3.5 2.6c0 1.103-.351 1.664-.819 1.999-.535.382-1.408.601-2.681.601v2c1.427 0 2.804-.231 3.844-.974 1.107-.79 1.656-2.029 1.656-3.626h-2zm18.093 14.4h-1v1h1v-1zm0-21.6h1v-1h-1v1zm-3.6 0v-1h-1v1h1zm0 25.2h-1v1h1v-1zm14.4 0v1h1v-1h-1zm0-3.6h1v-1h-1v1zm-9.8 0v-21.6h-2v21.6h2zm-1-22.6h-3.6v2h3.6v-2zm-4.6 1V187h2v-25.2h-2zm1 26.2h14.4v-2h-14.4v2zm15.4-1v-3.6h-2v3.6h2zm-1-4.6h-10.8v2h10.8v-2zm19.807-21.6c-3.866 0-7.067 1.458-9.293 3.931-2.216 2.462-3.407 5.864-3.407 9.669h2c0-3.395 1.059-6.293 2.893-8.331 1.824-2.027 4.473-3.269 7.807-3.269v-2zm-12.7 13.6c0 3.805 1.191 7.207 3.407 9.669 2.226 2.473 5.427 3.931 9.293 3.931v-2c-3.334 0-5.983-1.242-7.807-3.269-1.834-2.038-2.893-4.936-2.893-8.331h-2zm12.7 13.6c3.866 0 7.067-1.458 9.293-3.931 2.216-2.462 3.407-5.864 3.407-9.669h-2c0 3.395-1.059 6.293-2.893 8.331-1.824 2.027-4.473 3.269-7.807 3.269v2zm12.7-13.6c0-3.805-1.191-7.207-3.407-9.669-2.226-2.473-5.427-3.931-9.293-3.931v2c3.334 0 5.983 1.242 7.807 3.269 1.834 2.038 2.893 4.936 2.893 8.331h2zm-12.7-8c3.879 0 7.1 3.081 7.1 8h2c0-5.881-3.979-10-9.1-10v2zm7.1 8c0 4.919-3.221 8-7.1 8v2c5.121 0 9.1-4.119 9.1-10h-2zm-7.1 8c-3.879 0-7.1-3.081-7.1-8h-2c0 5.881 3.979 10 9.1 10v-2zm-7.1-8c0-4.919 3.221-8 7.1-8v-2c-5.121 0-9.1 4.119-9.1 10h2zM199.5 187l-.942.335.236.665h.706v-1zm3.6 0v1h1.419l-.477-1.336-.942.336zm-9-25.2l.942-.336-.237-.664h-.705v1zm-5.4 0v-1h-.705l-.237.664.942.336zm-9 25.2l-.942-.336-.477 1.336h1.419v-1zm3.6 0v1h.706l.236-.665-.942-.335zm2.556-7.2v-1h-.706l-.236.665.942.335zm11.088 0l.942-.335-.236-.665h-.706v1zm-9.792-3.6l-.942-.337-.478 1.337h1.42v-1zm4.248-11.88l.942-.337-.942-2.633-.942 2.633.942.337zm4.248 11.88v1h1.42l-.478-1.337-.942.337zM199.5 188h3.6v-2h-3.6v2zm4.542-1.336l-9-25.2-1.884.672 9 25.2 1.884-.672zM194.1 160.8h-5.4v2h5.4v-2zm-6.342.664l-9 25.2 1.884.672 9-25.2-1.884-.672zM179.7 188h3.6v-2h-3.6v2zm4.542-.665l2.556-7.2-1.884-.67-2.556 7.2 1.884.67zm1.614-6.535h11.088v-2h-11.088v2zm10.146-.665l2.556 7.2 1.884-.67-2.556-7.2-1.884.67zm-7.908-3.598l4.248-11.88-1.884-.674-4.248 11.88 1.884.674zm2.364-11.88l4.248 11.88 1.884-.674-4.248-11.88-1.884.674zm5.19 10.543h-8.496v2h8.496v-2zm17.359-13.4v-1h-1v1h1zm0 25.2h-1v1h1v-1zm3.6-3.6h-1v1h1v-1zm0-18v-1h-1v1h1zm.9-4.6h-4.5v2h4.5v-2zm-5.5 1V187h2v-25.2h-2zm1 26.2h4.5v-2h-4.5v2zm4.5 0c7.752 0 13.6-5.848 13.6-13.6h-2c0 6.648-4.952 11.6-11.6 11.6v2zm13.6-13.6c0-7.752-5.848-13.6-13.6-13.6v2c6.648 0 11.6 4.952 11.6 11.6h2zm-13.6 8h-.9v2h.9v-2zm.1 1v-18h-2v18h2zm-1-17h.9v-2h-.9v2zm.9 0c2.062 0 4.063.62 5.533 1.893 1.446 1.254 2.467 3.216 2.467 6.107h2c0-3.409-1.229-5.947-3.158-7.618-1.905-1.652-4.404-2.382-6.842-2.382v2zm8 8c0 2.891-1.021 4.853-2.467 6.107-1.47 1.273-3.471 1.893-5.533 1.893v2c2.438 0 4.937-.73 6.842-2.382 1.929-1.671 3.158-4.209 3.158-7.618h-2z"/>
    <path stroke="#000" stroke-width="4" d="M130 118.097V131h40v-12.903M130 106l20-20 20 20M148.754 122V86.025"/>
    <defs>
        <linearGradient id="a" x1="150" x2="150" y2="300" gradientUnits="userSpaceOnUse">
            <stop stop-color="#402B59"/>
            <stop offset=".255" stop-color="#B5191D"/>
            <stop offset=".74" stop-color="#FCBD0B"/>
            <stop offset="1" stop-color="#FFD7ED"/>
        </linearGradient>
    </defs>
</svg>
